# xmcd
#
# Track frame offsets: 
#        150
#        10035
#        20930
#        33012
#        43012
#        52990
#        66015
#        75637
#        87980
#        100002
#        107875
#        120125
#        131490
#        144877
#        156177
#        163757
#        175525
#        189802
#        199822
#        212710
#        224775
#        236052
#        246537
#        254900
#        264565
#        274147
#        286482
#        301577
#
# Disc length: 4186 seconds
#
# Revision: 0
# Processed by: cddbd v1.4PL0 Copyright (c) Steve Scherf et al.
# Submitted via: ExactAudioCopy v0.90b4
#
DISCID=8c10581c
DTITLE=Rod Bernard - Swamp Rock 'N' Roller 
DYEAR=1994
DGENRE=Blues
TTITLE0=Pardon Mr Gordon
TTITLE1=Recorded in England
TTITLE2=Memphis
TTITLE3=Gimme back my cadillac
TTITLE4=Who's gonna rock my baby
TTITLE5=Forgive
TTITLE6=My old mother in law
TTITLE7=I might as well
TTITLE8=Boss man's son
TTITLE9=Fais do do
TTITLE10=Loneliness
TTITLE11=Colinda
TTITLE12=I want somebody
TTITLE13=Diggy liggy lo
TTITLE14=Lawdy Miss Clawdy
TTITLE15=Prisoner's song
TTITLE16=Thirty days
TTITLE17=That's alright mama
TTITLE18=Lover's blues
TTITLE19=Maybellene
TTITLE20=Midnight special
TTITLE21=My babe
TTITLE22=Jambalaya (on the bayou)
TTITLE23=Big mamou
TTITLE24=New Orleans
TTITLE25=Give me love
TTITLE26=Shake rattle and roll
TTITLE27=This should go on forever
EXTD=
EXTT0=
EXTT1=
EXTT2=
EXTT3=
EXTT4=
EXTT5=
EXTT6=
EXTT7=
EXTT8=
EXTT9=
EXTT10=
EXTT11=
EXTT12=
EXTT13=
EXTT14=
EXTT15=
EXTT16=
EXTT17=
EXTT18=
EXTT19=
EXTT20=
EXTT21=
EXTT22=
EXTT23=
EXTT24=
EXTT25=
EXTT26=
EXTT27=
PLAYORDER=
